<?xml version="1.0" encoding="utf-8"?>
<!-- Generator: Adobe Illustrator 24.1.2, SVG Export Plug-In . SVG Version: 6.00 Build 0)  -->
<svg version="1.1" xmlns="http://www.w3.org/2000/svg" xmlns:xlink="http://www.w3.org/1999/xlink" x="0px" y="0px"
	 viewBox="0 0 226.77 226.77" style="enable-background:new 0 0 226.77 226.77;" xml:space="preserve">
<style type="text/css">
	.st0{fill:url(#SVGID_1_);}
	.st1{fill:#FFFFFF;}
	.st2{display:none;}
	.st3{display:inline;}
	.st4{fill:url(#SVGID_2_);}
</style>
<g id="Layer_1">
	<linearGradient id="SVGID_1_" gradientUnits="userSpaceOnUse" x1="221.001" y1="5.7706" x2="5.7706" y2="221.001">
		<stop  offset="0" style="stop-color:#EE386F"/>
		<stop  offset="0.2781" style="stop-color:#B8327A"/>
		<stop  offset="0.5211" style="stop-color:#912E83"/>
		<stop  offset="0.7139" style="stop-color:#792B88"/>
		<stop  offset="0.8324" style="stop-color:#702A8A"/>
	</linearGradient>
	<path class="st0" d="M207.07,226.77H19.7c-10.88,0-19.7-8.82-19.7-19.7V19.7C0,8.82,8.82,0,19.7,0h187.37
		c10.88,0,19.7,8.82,19.7,19.7v187.37C226.77,217.95,217.95,226.77,207.07,226.77z"/>
	<g>
		<g>
			<path class="st1" d="M117.28,83.53H71.27V37.25H43.16v124.39h28.11v-50h36.72L117.28,83.53z M154.97,115.94
				c-4.98,8.49-13.68,14.53-23.87,15.88l29.82,29.82h39.75L154.97,115.94z M165.74,99.67c0,6.08-1.39,11.84-3.88,16.96l18.15,18.15
				c6.66-10.07,10.54-22.13,10.54-35.11c0-33.15-25.29-60.38-57.63-63.47l-8.11,24.56c0.65-0.03,1.31-0.05,1.97-0.05
				C148.29,60.71,165.74,78.15,165.74,99.67z M126.78,138.64c-9.41,0-18.03-3.33-24.77-8.88l-8.12,24.57
				c9.6,5.79,20.85,9.13,32.88,9.13c8.78,0,17.15-1.78,24.77-4.99l-20.11-20.11C129.91,138.53,128.35,138.64,126.78,138.64z"/>
		</g>
	</g>
	<g>
		<path class="st1" d="M63.52,194.21l0.35,2.53h0.02l0.37-2.57l3.14-10.19h0.87l3.16,10.23l0.38,2.53h0.02l0.4-2.57l2.58-10.19h1.75
			l-4.25,15.51h-1l-3.1-10.23l-0.39-2.31h-0.11l-0.39,2.33l-3.1,10.21h-1l-4.36-15.51h1.92L63.52,194.21z"/>
		<path class="st1" d="M83.37,183.98h1.81v15.27h-1.81V183.98z"/>
		<path class="st1" d="M93.67,183.98c0.28-0.04,0.59-0.08,0.93-0.1c0.34-0.02,0.7-0.04,1.07-0.04c0.37-0.01,0.73-0.01,1.09-0.02
			c0.36-0.01,0.69-0.01,0.99-0.01c1.22,0,2.28,0.19,3.17,0.57c0.89,0.38,1.63,0.91,2.21,1.58c0.58,0.68,1.01,1.49,1.3,2.43
			c0.28,0.95,0.43,1.99,0.43,3.12c0,1.03-0.13,2.03-0.4,2.98c-0.27,0.95-0.69,1.8-1.28,2.53c-0.58,0.74-1.34,1.32-2.27,1.77
			c-0.93,0.44-2.06,0.67-3.38,0.67c-0.23,0-0.53,0-0.91-0.01c-0.37-0.01-0.75-0.02-1.15-0.04c-0.39-0.02-0.76-0.04-1.09-0.05
			s-0.57-0.04-0.72-0.07V183.98z M97.79,185.42c-0.19,0-0.4,0-0.62,0s-0.45,0.01-0.67,0.02s-0.42,0.03-0.6,0.04
			c-0.18,0.01-0.32,0.03-0.43,0.04v12.22c0.07,0.01,0.21,0.03,0.41,0.03c0.2,0.01,0.41,0.01,0.63,0.02
			c0.22,0.01,0.43,0.01,0.63,0.02c0.2,0.01,0.34,0.01,0.41,0.01c1.02,0,1.87-0.17,2.56-0.52c0.69-0.35,1.24-0.82,1.66-1.41
			s0.71-1.26,0.88-2.03c0.17-0.76,0.26-1.55,0.26-2.37c0-0.71-0.08-1.43-0.24-2.15c-0.16-0.72-0.44-1.37-0.83-1.95
			c-0.39-0.58-0.92-1.06-1.58-1.43C99.63,185.61,98.79,185.42,97.79,185.42z"/>
		<path class="st1" d="M117.44,191.64h5.13v6.72c-0.23,0.17-0.51,0.33-0.84,0.48s-0.68,0.27-1.05,0.37s-0.76,0.18-1.16,0.23
			s-0.79,0.08-1.17,0.08c-0.97,0-1.87-0.16-2.68-0.47c-0.82-0.31-1.52-0.79-2.12-1.44c-0.6-0.65-1.06-1.47-1.4-2.47
			c-0.33-1-0.5-2.17-0.5-3.52c0-1.41,0.2-2.62,0.61-3.62c0.41-1,0.94-1.82,1.59-2.45s1.39-1.09,2.2-1.38
			c0.81-0.29,1.63-0.44,2.44-0.44c0.87,0,1.59,0.05,2.16,0.14c0.57,0.09,1.05,0.22,1.44,0.38l-0.46,1.61
			c-0.7-0.35-1.69-0.52-2.99-0.52c-0.61,0-1.22,0.11-1.82,0.32s-1.15,0.56-1.63,1.06c-0.48,0.5-0.87,1.14-1.18,1.94
			c-0.31,0.8-0.46,1.79-0.46,2.97c0,1.08,0.12,2.01,0.37,2.79c0.25,0.79,0.59,1.44,1.03,1.95c0.44,0.52,0.97,0.9,1.6,1.16
			c0.62,0.25,1.3,0.38,2.04,0.38c0.93,0,1.72-0.18,2.37-0.54v-4.25l-3.56-0.44V191.64z"/>
		<path class="st1" d="M130.01,183.98h8.31v1.61h-6.5v5h5.95v1.61h-5.95v5.43h6.61v1.61h-8.42V183.98z"/>
		<path class="st1" d="M155.92,185.6h-4.76v13.66h-1.81V185.6h-4.75v-1.61h11.32V185.6z"/>
		<path class="st1" d="M169.42,195.37c0-0.61-0.18-1.11-0.54-1.49c-0.36-0.38-0.82-0.73-1.36-1.03c-0.55-0.3-1.14-0.58-1.78-0.84
			s-1.23-0.58-1.78-0.95c-0.55-0.37-1-0.83-1.36-1.37c-0.36-0.54-0.55-1.24-0.55-2.08c0-1.19,0.42-2.14,1.24-2.84
			c0.83-0.7,2.01-1.05,3.53-1.05c0.89,0,1.69,0.07,2.42,0.2c0.73,0.13,1.29,0.3,1.7,0.5l-0.55,1.61c-0.33-0.17-0.83-0.32-1.47-0.47
			c-0.65-0.15-1.38-0.23-2.19-0.23c-0.96,0-1.68,0.21-2.16,0.64c-0.48,0.43-0.72,0.93-0.72,1.52c0,0.57,0.18,1.04,0.55,1.42
			c0.36,0.38,0.82,0.72,1.36,1.01c0.54,0.3,1.14,0.59,1.78,0.88s1.23,0.63,1.78,1.01c0.55,0.39,1,0.85,1.36,1.39
			c0.36,0.54,0.54,1.21,0.54,2.01c0,0.65-0.12,1.24-0.35,1.77c-0.23,0.52-0.58,0.97-1.03,1.35c-0.45,0.38-1,0.67-1.64,0.87
			c-0.64,0.2-1.37,0.31-2.18,0.31c-1.09,0-1.99-0.08-2.71-0.25s-1.26-0.35-1.66-0.56l0.61-1.61c0.33,0.18,0.83,0.36,1.48,0.54
			c0.65,0.18,1.39,0.27,2.2,0.27c0.48,0,0.93-0.05,1.35-0.14c0.42-0.09,0.79-0.25,1.09-0.46c0.3-0.21,0.55-0.48,0.73-0.8
			C169.33,196.18,169.42,195.81,169.42,195.37z"/>
	</g>
</g>
<g id="Layer_2" class="st2">
	<g class="st3">
		<g>
			
				<linearGradient id="SVGID_2_" gradientUnits="userSpaceOnUse" x1="-145.6373" y1="5.7706" x2="-360.8677" y2="221.001" gradientTransform="matrix(1 0 0 1 366.6383 0)">
				<stop  offset="0" style="stop-color:#EE386F"/>
				<stop  offset="0.2781" style="stop-color:#B8327A"/>
				<stop  offset="0.5211" style="stop-color:#912E83"/>
				<stop  offset="0.7139" style="stop-color:#792B88"/>
				<stop  offset="0.8324" style="stop-color:#702A8A"/>
			</linearGradient>
			<path class="st4" d="M207.07,0H19.7C8.82,0,0,8.82,0,19.7v187.37c0,10.88,8.82,19.7,19.7,19.7h187.37
				c10.88,0,19.7-8.82,19.7-19.7V19.7C226.77,8.82,217.95,0,207.07,0z M132.92,36.2c32.34,3.09,57.63,30.32,57.63,63.47
				c0,12.98-3.89,25.04-10.54,35.11l-18.15-18.15c2.48-5.13,3.88-10.88,3.88-16.96c0-21.52-17.44-38.96-38.96-38.96
				c-0.66,0-1.32,0.02-1.97,0.05L132.92,36.2z M43.16,37.25h28.11v46.28h46.01l-9.29,28.11H71.27v50H43.16V37.25z M72.31,199.49h-1
				l-3.1-10.23l-0.39-2.31h-0.11l-0.39,2.33l-3.1,10.21h-1l-4.36-15.51h1.92l2.75,10.23l0.35,2.53h0.02l0.37-2.57l3.14-10.19h0.87
				l3.16,10.23l0.38,2.53h0.02l0.4-2.57l2.58-10.19h1.75L72.31,199.49z M85.18,199.25h-1.81v-15.27h1.81V199.25z M104.45,194.49
				c-0.27,0.95-0.69,1.8-1.28,2.53c-0.58,0.74-1.34,1.32-2.27,1.77s-2.06,0.67-3.38,0.67c-0.23,0-0.53,0-0.91-0.01
				c-0.37-0.01-0.75-0.02-1.15-0.04c-0.39-0.02-0.76-0.04-1.09-0.05c-0.33-0.01-0.57-0.04-0.72-0.07v-15.29
				c0.28-0.04,0.59-0.08,0.93-0.1c0.34-0.02,0.7-0.04,1.07-0.04c0.37-0.01,0.73-0.01,1.09-0.02c0.36-0.01,0.69-0.01,0.99-0.01
				c1.22,0,2.28,0.19,3.17,0.57c0.89,0.38,1.63,0.91,2.21,1.58c0.58,0.68,1.01,1.49,1.3,2.43s0.43,1.99,0.43,3.12
				C104.86,192.54,104.72,193.53,104.45,194.49z M122.57,198.36c-0.23,0.17-0.51,0.33-0.84,0.48c-0.33,0.15-0.68,0.27-1.05,0.37
				s-0.76,0.18-1.16,0.23s-0.79,0.08-1.17,0.08c-0.97,0-1.87-0.16-2.68-0.47s-1.52-0.79-2.12-1.44c-0.6-0.65-1.06-1.47-1.4-2.47
				c-0.33-1-0.5-2.17-0.5-3.52c0-1.41,0.2-2.62,0.61-3.62c0.41-1,0.94-1.82,1.59-2.45s1.39-1.09,2.2-1.38
				c0.81-0.29,1.63-0.44,2.44-0.44c0.87,0,1.59,0.05,2.16,0.14c0.57,0.09,1.05,0.22,1.44,0.38l-0.46,1.61
				c-0.7-0.35-1.7-0.52-2.99-0.52c-0.61,0-1.22,0.11-1.82,0.32s-1.15,0.56-1.62,1.06c-0.48,0.5-0.87,1.14-1.18,1.94
				c-0.31,0.8-0.46,1.79-0.46,2.97c0,1.08,0.12,2.01,0.37,2.79s0.59,1.44,1.03,1.95c0.44,0.52,0.97,0.9,1.6,1.16
				c0.62,0.25,1.3,0.38,2.04,0.38c0.93,0,1.72-0.18,2.37-0.54v-4.25l-3.56-0.44v-1.03h5.13V198.36z M93.89,154.32l8.12-24.57
				c6.73,5.55,15.36,8.88,24.77,8.88c1.58,0,3.13-0.1,4.66-0.29l20.11,20.11c-7.62,3.21-15.98,4.99-24.77,4.99
				C114.75,163.45,103.5,160.11,93.89,154.32z M138.43,199.25h-8.42v-15.27h8.31v1.61h-6.5v5h5.96v1.61h-5.96v5.43h6.61V199.25z
				 M155.92,185.6h-4.76v13.66h-1.81V185.6h-4.76v-1.61h11.32V185.6z M170.89,196.98c-0.23,0.52-0.58,0.97-1.03,1.35
				c-0.45,0.38-1,0.67-1.64,0.87c-0.64,0.2-1.37,0.31-2.18,0.31c-1.09,0-1.99-0.08-2.71-0.25s-1.26-0.35-1.66-0.56l0.61-1.61
				c0.33,0.18,0.83,0.36,1.48,0.54c0.65,0.18,1.39,0.27,2.2,0.27c0.48,0,0.93-0.05,1.35-0.14c0.42-0.09,0.79-0.25,1.09-0.46
				c0.3-0.21,0.55-0.48,0.73-0.8c0.18-0.32,0.27-0.7,0.27-1.13c0-0.61-0.18-1.11-0.54-1.49c-0.36-0.38-0.82-0.73-1.36-1.03
				c-0.55-0.3-1.14-0.58-1.78-0.84s-1.23-0.58-1.78-0.95c-0.55-0.37-1-0.83-1.36-1.37c-0.36-0.54-0.55-1.24-0.55-2.08
				c0-1.19,0.42-2.14,1.24-2.84c0.83-0.7,2.01-1.05,3.53-1.05c0.89,0,1.69,0.07,2.42,0.2c0.73,0.13,1.29,0.3,1.7,0.5l-0.55,1.61
				c-0.33-0.17-0.83-0.32-1.47-0.47c-0.65-0.15-1.38-0.23-2.19-0.23c-0.96,0-1.68,0.21-2.16,0.64c-0.48,0.43-0.72,0.93-0.72,1.52
				c0,0.57,0.18,1.04,0.55,1.42c0.36,0.38,0.82,0.72,1.36,1.01c0.54,0.3,1.14,0.59,1.78,0.88s1.23,0.63,1.78,1.01
				c0.54,0.39,1,0.85,1.36,1.39c0.36,0.54,0.54,1.21,0.54,2.01C171.24,195.87,171.12,196.46,170.89,196.98z M160.92,161.64
				l-29.82-29.82c10.19-1.35,18.89-7.39,23.87-15.88l45.7,45.7H160.92z M101.87,187.41c-0.39-0.58-0.92-1.06-1.58-1.43
				c-0.66-0.37-1.49-0.56-2.5-0.56h-0.62c-0.23,0-0.45,0.01-0.67,0.02s-0.42,0.03-0.6,0.04c-0.18,0.01-0.32,0.03-0.43,0.04v12.22
				c0.07,0.01,0.21,0.03,0.41,0.03c0.2,0.01,0.41,0.01,0.63,0.02c0.22,0.01,0.43,0.01,0.63,0.02c0.2,0.01,0.34,0.01,0.41,0.01
				c1.02,0,1.87-0.17,2.56-0.52c0.69-0.35,1.24-0.82,1.66-1.41s0.71-1.26,0.88-2.03c0.17-0.76,0.26-1.55,0.26-2.37
				c0-0.71-0.08-1.43-0.24-2.15S102.26,187.99,101.87,187.41z"/>
		</g>
	</g>
</g>
</svg>
